#!OML:ASF F:\VICON\USERDATA\INSTALL\rory3\rory3.ASF
:FULLY-SPECIFIED
:DEGREES
3766
root -7.74315 17.7674 -3.01131 -720.473 62.241 -718.554
lowerback 11.291 -0.5396 -4.8224
upperback 1.54187 -1.29253 -0.60203
thorax -4.62306 -0.541553 2.2803
lowerneck -12.252 -7.04176 -14.7886
upperneck 37.7451 -8.40827 7.90837
head 16.7989 -4.31151 4.7066
rclavicle -3.22528e-014 -1.63003e-014
rhumerus -38.6562 -21.7317 -75.9779
rradius 33.6598
rwrist 8.46695
rhand -19.5432 9.89832
rfingers 7.12502
rthumb 6.78084 -19.9731
lclavicle -3.22528e-014 -1.63003e-014
lhumerus -33.9694 11.2056 77.3187
lradius 32.9727
lwrist -3.06379
lhand -21.1252 27.0616
lfingers 7.12502
lthumb 5.25343 56.9765
rfemur -15.8577 -3.74186 15.5158
rtibia 43.3375
rfoot -21.8659 0.381453
rtoes -11.784
lfemur -5.43879 -0.365722 -21.7319
ltibia 23.9421
lfoot -13.6262 -11.7546
ltoes 4.97983
3767
root -7.76009 17.7741 -2.98704 -720.576 62.3198 -718.642
lowerback 11.3328 -0.526503 -4.72951
upperback 1.47268 -1.26848 -0.571702
thorax -4.72223 -0.528126 2.25781
lowerneck -12.0915 -6.87114 -14.8321
upperneck 37.9048 -8.04989 7.67542
head 16.7732 -4.19955 4.68718
rclavicle -3.91606e-014 8.74653e-015
rhumerus -38.8608 -21.5493 -75.9624
rradius 33.7121
rwrist 8.55058
rhand -19.7248 9.91401
rfingers 7.12502
rthumb 6.60544 -19.963
lclavicle -3.91606e-014 8.74653e-015
lhumerus -34.2344 10.7651 77.5675
lradius 33.2998
lwrist -1.98676
lhand -21.766 27.475
lfingers 7.12502
lthumb 4.63469 57.4043
rfemur -15.8264 -3.73279 15.0712
rtibia 43.3243
rfoot -21.4952 -0.631864
rtoes -10.297
lfemur -5.24439 -0.712445 -21.607
ltibia 23.603
lfoot -13.4113 -11.5353
ltoes 5.10555
3768
root -7.77842 17.7849 -2.95887 -720.624 62.4881 -718.687
lowerback 11.3232 -0.503366 -4.66271
upperback 1.47024 -1.23057 -0.602833
thorax -4.72437 -0.51071 2.18184
lowerneck -12.0721 -6.79671 -14.629
upperneck 38.0501 -7.89588 7.44106
head 16.7921 -4.13501 4.58092
rclavicle -1.31695e-014 -1.98785e-015
rhumerus -39.0015 -21.7496 -75.9619
rradius 33.7528
rwrist 8.50471
rhand -19.7007 9.87404
rfingers 7.12502
rthumb 6.62875 -20.0022
lclavicle -1.31695e-014 -1.98785e-015
lhumerus -34.3007 10.798 77.4284
lradius 33.3916
lwrist -2.3722
lhand -20.8468 26.6524
lfingers 7.12502
lthumb 5.52231 56.5604
rfemur -15.7373 -3.68396 14.6194
rtibia 43.2586
rfoot -21.0727 -1.47852
rtoes -9.34714
lfemur -5.10732 -0.873156 -21.4545
ltibia 23.3006
lfoot -13.2682 -11.6305
ltoes 5.25547
3769
root -7.79867 17.7944 -2.92577 -720.907 62.6256 -718.956
lowerback 11.2368 -0.49094 -4.58079
upperback 1.59457 -1.1924 -0.586467
thorax -4.54964 -0.498521 2.14444
lowerneck -12.3225 -6.72914 -14.3411
upperneck 38.203 -7.72782 7.16453
head 16.873 -4.05506 4.43827
rclavicle 5.73991e-014 -5.56597e-015
rhumerus -38.9076 -21.9042 -76.0644
rradius 33.8258
rwrist 8.13884
rhand -19.523 9.81736
rfingers 7.12502
rthumb 6.80028 -20.0534
lclavicle 5.73991e-014 -5.56597e-015
lhumerus -34.1813 10.9081 77.2573
lradius 33.4513
lwrist -2.45695
lhand -19.6864 25.6558
lfingers 7.12502
lthumb 6.64255 55.5316
rfemur -15.5972 -3.60679 14.2771
rtibia 43.1393
rfoot -20.6008 -2.11136
rtoes -8.97811
lfemur -4.92036 -0.917885 -21.1601
ltibia 22.9881
lfoot -13.1424 -11.7867
ltoes 5.04255
3770
root -7.81679 17.7984 -2.8949 -721 62.6659 -718.993
lowerback 11.0696 -0.538781 -4.70465
upperback 1.75193 -1.24965 -0.494788
thorax -4.2827 -0.53242 2.31357
lowerneck -12.6248 -6.56624 -14.3026
upperneck 38.3248 -7.37715 6.99839
head 16.9461 -3.92254 4.42325
rclavicle -9.74045e-015 -1.15295e-014
rhumerus -38.6524 -21.6912 -76.1616
rradius 33.8668
rwrist 7.84729
rhand -19.4542 9.76496
rfingers 7.12502
rthumb 6.86671 -20.1037
lclavicle -9.74045e-015 -1.15295e-014
lhumerus -34.1246 11.4472 77.0821
lradius 33.4979
lwrist -2.07086
lhand -18.8906 24.6408
lfingers 7.12502
lthumb 7.41071 54.491
rfemur -15.4556 -3.42077 13.759
rtibia 42.9843
rfoot -20.2709 -2.63421
rtoes -8.72749
lfemur -4.70689 -1.09198 -21.0236
ltibia 22.6845
lfoot -13.0131 -11.677
ltoes 4.71163
3771
root -7.83284 17.8051 -2.86487 -720.796 62.7166 -718.706
lowerback 11.3515 -0.455826 -4.65807
upperback 1.47579 -1.16903 -0.625459
thorax -4.73918 -0.480128 2.1468
lowerneck -12.2084 -6.47211 -14.3073
upperneck 38.5228 -7.27616 7.01285
head 16.9341 -3.88293 4.46846
rclavicle -5.31252e-014 -1.59028e-014
rhumerus -39.4094 -21.9104 -75.8924
rradius 34.0313
rwrist 7.76401
rhand -19.5289 9.65475
rfingers 7.12502
rthumb 6.79459 -20.2162
lclavicle -5.31252e-014 -1.59028e-014
lhumerus -34.6732 11.2327 76.8684
lradius 33.6196
lwrist -1.91393
lhand -18.5495 24.4243
lfingers 7.12502
lthumb 7.74001 54.2627
rfemur -15.3078 -3.01309 13.0042
rtibia 42.8035
rfoot -20.042 -2.74809
rtoes -6.17185
lfemur -4.50287 -1.24804 -21.0578
ltibia 22.4008
lfoot -12.8749 -11.5724
ltoes 4.67111
3772
root -7.85111 17.8121 -2.83367 -720.763 62.8627 -718.644
lowerback 11.2731 -0.445257 -4.79649
upperback 1.51597 -1.1618 -0.54545
thorax -4.64926 -0.476296 2.30566
lowerneck -12.2419 -6.41327 -14.3432
upperneck 38.5775 -7.12739 6.92394
head 16.9468 -3.83645 4.46446
rclavicle 4.91992e-014 -1.19271e-015
rhumerus -39.4169 -22.0283 -75.7469
rradius 34.0273
rwrist 7.68114
rhand -19.5909 9.46595
rfingers 7.12502
rthumb 6.73477 -20.4069
lclavicle 4.91992e-014 -1.19271e-015
lhumerus -34.7619 11.1161 77.0515
lradius 33.7745
lwrist -1.72098
lhand -18.7538 24.6597
lfingers 7.12502
lthumb 7.5428 54.5052
rfemur -15.168 -2.69727 12.3679
rtibia 42.5977
rfoot -19.7446 -2.59083
rtoes -3.78589
lfemur -4.33665 -1.41202 -20.9599
ltibia 22.0777
lfoot -12.6811 -11.6114
ltoes 4.76467
3773
root -7.87019 17.8176 -2.80184 -720.682 63.0078 -718.601
lowerback 11.1207 -0.457819 -4.84363
upperback 1.59197 -1.16987 -0.503854
thorax -4.4822 -0.484354 2.37348
lowerneck -12.4538 -6.34359 -14.4845
upperneck 38.5819 -6.96875 6.9868
head 16.9899 -3.78045 4.54657
rclavicle -6.0033e-014 9.93923e-015
rhumerus -39.2779 -22.072 -75.7313
rradius 34.0089
rwrist 7.34034
rhand -19.819 9.27991
rfingers 7.12502
rthumb 6.51456 -20.5999
lclavicle -6.0033e-014 9.93923e-015
lhumerus -34.7184 11.0754 77.1688
lradius 33.8505
lwrist -1.62149
lhand -18.9164 24.6346
lfingers 7.12502
lthumb 7.38585 54.4857
rfemur -15.0862 -2.63275 11.7685
rtibia 42.3529
rfoot -19.3643 -2.5016
rtoes -4.25826
lfemur -4.2404 -1.5332 -20.8482
ltibia 21.725
lfoot -12.4776 -11.6694
ltoes 4.62917
3774
root -7.88891 17.8235 -2.76755 -720.678 63.0885 -718.549
lowerback 11.078 -0.450091 -4.9742
upperback 1.64475 -1.16574 -0.40707
thorax -4.39853 -0.482472 2.54637
lowerneck -12.5467 -6.24955 -14.8185
upperneck 38.5969 -6.76853 7.1545
head 17.0198 -3.7235 4.72246
rclavicle -6.55989e-015 1.59028e-014
rhumerus -39.2068 -22.0123 -75.5753
rradius 33.9738
rwrist 7.0259
rhand -20.2092 9.21782
rfingers 7.12502
rthumb 6.13788 -20.6733
lclavicle -6.55989e-015 1.59028e-014
lhumerus -34.6811 11.5243 77.1908
lradius 33.7362
lwrist -1.91791
lhand -18.775 24.2881
lfingers 7.12502
lthumb 7.52235 54.1343
rfemur -14.8943 -2.53837 11.1795
rtibia 42.0577
rfoot -18.9253 -2.64568
rtoes -6.55538
lfemur -4.05885 -1.58789 -20.75
ltibia 21.4157
lfoot -12.4426 -11.6278
ltoes 3.64499
3775
root -7.90943 17.8297 -2.7332 -720.892 63.1398 -718.705
lowerback 11.1838 -0.37961 -4.94827
upperback 1.58425 -1.07534 -0.340834
thorax -4.52727 -0.43392 2.5906
lowerneck -12.3983 -6.22883 -14.8792
upperneck 38.6876 -6.71063 7.10955
head 17.0255 -3.7146 4.73068
rclavicle 3.07619e-014 3.18055e-015
rhumerus -39.4327 -22.2937 -75.22
rradius 33.8795
rwrist 7.0277
rhand -20.8617 9.3318
rfingers 7.12502
rthumb 5.50789 -20.5766
lclavicle 3.07619e-014 3.18055e-015
lhumerus -34.851 11.3975 77.304
lradius 33.7456
lwrist -1.80155
lhand -19.0033 24.3779
lfingers 7.12502
lthumb 7.30199 54.2319
rfemur -14.6594 -2.2152 10.672
rtibia 41.7206
rfoot -18.4834 -2.6702
rtoes -7.84544
lfemur -3.8464 -1.6858 -20.5465
ltibia 21.1163
lfoot -12.3961 -11.5629
ltoes 2.66515
